<svg xmlns="http://www.w3.org/2000/svg" viewBox="0 0 128 128">
  <defs>
    <linearGradient id="bg" x1="0%" y1="0%" x2="100%" y2="100%">
      <stop offset="0%" style="stop-color:#1B2A4A"/>
      <stop offset="100%" style="stop-color:#152240"/>
    </linearGradient>
  </defs>
  <!-- Rounded square background -->
  <rect width="128" height="128" rx="24" fill="url(#bg)"/>
  <!-- Church window / pointed arch shape -->
  <path d="M64 18 C64 18 42 42 42 62 C42 74 52 84 64 84 C76 84 86 74 86 62 C86 42 64 18 64 18Z" fill="none" stroke="#C8982E" stroke-width="4" stroke-linejoin="round"/>
  <!-- Cross inside the arch -->
  <line x1="64" y1="32" x2="64" y2="72" stroke="#C8982E" stroke-width="4" stroke-linecap="round"/>
  <line x1="52" y1="50" x2="76" y2="50" stroke="#C8982E" stroke-width="4" stroke-linecap="round"/>
  <!-- Stylised "C" letterform at bottom -->
  <path d="M52 94 C48 94 44 97 44 102 C44 107 48 110 52 110 L76 110 C80 110 84 107 84 102 C84 97 80 94 76 94" fill="none" stroke="#F5F0E8" stroke-width="3.5" stroke-linecap="round"/>
</svg>
